<svg xmlns="http://www.w3.org/2000/svg" xml:space="preserve" width="800" height="800" viewBox="0 0 512 512"><path d="M362 194.2A61.4 61.4 0 0 0 300 256a61.4 61.4 0 0 0 61.8 61.8 61.4 61.4 0 0 0 61.8-61.8 61.4 61.4 0 0 0-61.8-61.8zm0 106c-24.8 0-44.2-19.5-44.2-44.2s19.4-44.1 44.1-44.1 44.2 19.4 44.2 44.1-19.5 44.1-44.2 44.1zM256 220.7a61.4 61.4 0 0 0 61.8-61.8A61.4 61.4 0 0 0 256 97.1a61.4 61.4 0 0 0-61.8 61.8 61.4 61.4 0 0 0 61.8 61.8zm0-106c24.7 0 44.1 19.5 44.1 44.2S280.7 203 256 203s-44.1-19.4-44.1-44.1 19.4-44.1 44.1-44.1zM150 123.6A61.4 61.4 0 0 0 212 61.8 61.4 61.4 0 0 0 150 0a61.4 61.4 0 0 0-61.8 61.8 61.4 61.4 0 0 0 61.8 61.8zm0-106a43.7 43.7 0 0 1 44.2 44.2c0 24.7-19.4 44.1-44.1 44.1s-44.2-19.4-44.2-44.1a43.7 43.7 0 0 1 44.2-44.1zM256 291.3c-34.4 0-61.8 27.4-61.8 61.8s27.4 61.8 61.8 61.8 61.8-27.4 61.8-61.8-27.4-61.8-61.8-61.8zm0 106c-24.7 0-44.1-19.5-44.1-44.2S231.3 309 256 309s44.1 19.4 44.1 44.1-19.4 44.1-44.1 44.1zM150 388.4c-34.4 0-61.7 27.4-61.7 61.8S115.6 512 150 512c34.4 0 61.8-27.4 61.8-61.8s-27.4-61.8-61.8-61.8zm0 106c-24.6 0-44-19.5-44-44.2s19.4-44.1 44-44.1 44.2 19.4 44.2 44.1-19.4 44.1-44.1 44.1z"/></svg>